Coordinates
version=1
nRows=15
nColumns=23
inDegrees=yes

Units are S.I. units (second, meters, Newtons, ...)
If the header above contains a line with 'inDegrees', this indicates whether rotational values are in degrees (yes) or radians (no).

endheader
time	pelvis_tilt	pelvis_list	pelvis_rotation	pelvis_tx	pelvis_ty	pelvis_tz	hip_flexion_r	hip_adduction_r	hip_rotation_r	knee_angle_r	knee_angle_r_beta	ankle_angle_r	subtalar_angle_r	mtp_angle_r	hip_flexion_l	hip_adduction_l	hip_rotation_l	knee_angle_l	knee_angle_l_beta	ankle_angle_l	subtalar_angle_l	mtp_angle_l
     15.00000000	     -2.60562203	     -6.31122276	     -0.67947983	      1.84959227	      0.94954975	      1.01238200	     23.28867178	      5.30050724	    -17.15458587	     39.77424249	      0.69419149	     16.35665716	     -6.62003123	      0.00000000	      5.22322086	    -11.40931500	     -6.76267750	     82.22021344	      1.43501344	    -16.08103998	    -28.90232316	      0.00000000
     15.00666667	     -2.54253326	     -6.65451164	     -0.93935659	      1.84679753	      0.94564029	      1.01277616	     23.04192733	      5.75737943	    -16.55502692	     41.21936058	      0.71941356	     17.77407537	     -7.05137088	      0.00000000	      7.25642888	    -11.81853595	     -6.05012212	     85.19986562	      1.48701818	    -15.63808797	    -28.87973308	      0.00000000
     15.01333333	     -2.56046749	     -6.97612085	     -1.12869213	      1.84389373	      0.94199506	      1.01302899	     22.80533293	      6.16799084	    -16.01140358	     42.51096147	      0.74195625	     19.08128701	     -7.41202911	      0.00000000	      9.45250568	    -12.11997514	     -5.14843968	     87.96952097	      1.53535778	    -15.18886609	    -28.78275556	      0.00000000
     15.02000000	     -2.33395726	     -7.36345958	     -1.23525955	      1.84123171	      0.93917624	      1.01314925	     22.13709481	      6.62399019	    -15.57442068	     43.52934868	      0.75973046	     20.35125335	     -7.67480182	      0.00000000	     11.36004191	    -12.42581259	     -4.13767852	     90.38416142	      1.57750121	    -14.75857464	    -28.64245398	      0.00000000
     15.02666667	     -2.77222895	     -7.57245624	     -1.28282151	      1.83834175	      0.93582623	      1.01308055	     22.17081633	      6.83629438	    -15.23672963	     44.50414107	      0.77674379	     21.30842875	     -7.81023073	      0.00000000	     14.13374284	    -12.44600045	     -2.95543432	     92.66559565	      1.61731975	    -14.27515313	    -28.28380958	      0.00000000
     15.03333333	     -3.08117931	     -7.65597522	     -1.26098293	      1.83562537	      0.93315539	      1.01296271	     21.93561705	      6.90770172	    -14.93273740	     45.29104329	      0.79047783	     22.30592569	     -7.87129272	      0.00000000	     16.73412990	    -12.25023349	     -1.75241841	     94.56982150	      1.65055476	    -13.79735344	    -27.81535801	      0.00000000
     15.04000000	     -3.41861806	     -7.58197923	     -1.20084220	      1.83302956	      0.93094820	      1.01275888	     21.62518579	      6.76082042	    -14.74655437	     45.93619148	      0.80173779	     23.30532183	     -7.73862874	      0.00000000	     19.32753574	    -11.83038154	     -0.61383710	     96.12761193	      1.67774333	    -13.30049667	    -27.15350855	      0.00000000
     15.04666667	     -3.29238865	     -7.59073535	     -1.04159255	      1.83079327	      0.93018206	      1.01252052	     20.56409630	      6.80691518	    -14.45766686	     46.07867021	      0.80422451	     24.10247865	     -7.75114913	      0.00000000	     21.30043515	    -11.50904078	      0.45468226	     97.20912354	      1.69661927	    -12.91177848	    -26.52379070	      0.00000000
     15.05333333	     -3.50575276	     -7.58305427	     -0.74092035	      1.82878377	      0.92933303	      1.01204038	     19.74578897	      6.65252058	    -14.66512709	     46.06461187	      0.80397915	     24.72107589	     -7.60931311	      0.00000000	     23.66780216	    -11.08352914	      1.62993828	     98.05808787	      1.71143649	    -12.31280997	    -25.46422683	      0.00000000
     15.06000000	     -3.89199627	     -7.35538137	     -0.31661921	      1.82675843	      0.92863244	      1.01127767	     19.08791853	      6.10881620	    -15.20193013	     46.08214848	      0.80428522	     25.34983193	     -6.52901488	      0.00000000	     26.20344658	    -10.30966696	      2.73773274	     98.60024768	      1.72089897	    -11.52109933	    -24.06958761	      0.00000000
     15.06666667	     -3.91451875	     -7.07495245	      0.08743367	      1.82507326	      0.92929545	      1.01065312	     17.82686635	      5.67817856	    -15.47050552	     45.64761391	      0.79670116	     25.63416973	     -6.11130195	      0.00000000	     28.13022514	     -9.51753766	      3.60229151	     98.63900455	      1.72157540	    -10.98241550	    -23.08131238	      0.00000000
     15.07333333	     -3.98465557	     -6.65963738	      0.08413903	      1.82350075	      0.93068046	      1.01067490	     16.52755661	      5.35791013	    -15.12530143	     44.98887580	      0.78520401	     25.80225141	     -5.85769715	      0.00000000	     29.83907221	     -8.85714226	      3.85131218	     98.21561447	      1.71418585	    -10.74273865	    -22.64051362	      0.00000000
     15.08000000	     -3.67960581	     -6.19908616	      0.90333209	      1.82269865	      0.93274913	      1.00928160	     14.60593439	      4.42083005	    -16.34650649	     44.19286833	      0.77131106	     26.03889380	     -4.13041752	      0.00000000	     31.15624718	     -7.69338039	      4.65629002	     97.53341528	      1.70227923	     -9.98973718	    -21.39176977	      0.00000000
     15.08666667	     -3.58905955	     -5.55959649	      1.24387113	      1.82189944	      0.93531476	      1.00861711	     12.88940912	      3.66042900	    -16.65334991	     43.20352483	      0.75404376	     25.86885244	     -3.43686607	      0.00000000	     32.41387173	     -6.61763145	      4.82877849	     96.41043851	      1.68267959	     -9.58432664	    -20.90819803	      0.00000000
     15.09333333	     -3.42081617	     -4.91080281	      1.56939640	      1.82149265	      0.93849848	      1.00793504	     10.97108148	      2.86086185	    -17.14579042	     42.01990660	      0.73338572	     25.61349076	     -2.10192196	      0.00000000	     33.40368183	     -5.61116966	      4.82874842	     94.93630483	      1.65695110	     -9.20678894	    -20.59252373	      0.00000000
